<svg width="102" height="102" viewBox="0 0 102 102" fill="none" xmlns="http://www.w3.org/2000/svg">
<rect width="102" height="102" rx="24" fill="#6EA8FE"/>
<g clip-path="url(#clip0_635_368)">
<path d="M52.1879 73.5159L52.1639 73.5199L52.0219 73.5899L51.9819 73.5979L51.9539 73.5899L51.8119 73.5179C51.7905 73.5125 51.7745 73.5165 51.7639 73.5299L51.7559 73.5499L51.7219 74.4059L51.7319 74.4459L51.7519 74.4719L51.9599 74.6199L51.9899 74.6279L52.0139 74.6199L52.2219 74.4719L52.2459 74.4399L52.2539 74.4059L52.2199 73.5519C52.2145 73.5305 52.2039 73.5185 52.1879 73.5159ZM52.7159 73.2899L52.6879 73.2939L52.3199 73.4799L52.2999 73.4999L52.2939 73.5219L52.3299 74.3819L52.3399 74.4059L52.3559 74.4219L52.7579 74.6059C52.7832 74.6125 52.8025 74.6072 52.8159 74.5899L52.8239 74.5619L52.7559 73.3339C52.7492 73.3085 52.7359 73.2939 52.7159 73.2899ZM51.2859 73.2939C51.277 73.2885 51.2665 73.2868 51.2564 73.289C51.2464 73.2913 51.2376 73.2973 51.2319 73.3059L51.2199 73.3339L51.1519 74.5619C51.1532 74.5859 51.1645 74.6019 51.1859 74.6099L51.2159 74.6059L51.6179 74.4199L51.6379 74.4039L51.6439 74.3819L51.6799 73.5219L51.6739 73.4979L51.6539 73.4779L51.2859 73.2939Z" fill="white"/>
<path d="M29 60.4001C29 59.2667 29.292 58.2254 29.876 57.2761C30.46 56.3267 31.2347 55.6014 32.2 55.1001C34.2667 54.0667 36.3667 53.2921 38.5 52.7761C40.6333 52.2601 42.8 52.0014 45 52.0001C47.2 51.9987 49.3667 52.2574 51.5 52.7761C53.6333 53.2947 55.7333 54.0694 57.8 55.1001C58.7667 55.6001 59.542 56.3254 60.126 57.2761C60.71 58.2267 61.0013 59.2681 61 60.4001V62.0001C61 63.1001 60.6087 64.0421 59.826 64.8261C59.0433 65.6101 58.1013 66.0014 57 66H33C31.9 66 30.9587 65.6087 30.176 64.8261C29.3933 64.0434 29.0013 63.1014 29 62.0001V60.4001ZM63.9 66C64.2667 65.4 64.542 64.7587 64.726 64.0761C64.91 63.3934 65.0013 62.7014 65 62.0001V60.0001C65 58.5334 64.592 57.1247 63.776 55.7741C62.96 54.4234 61.8013 53.2654 60.3 52.3001C62 52.5001 63.6 52.8421 65.1 53.3261C66.6 53.8101 68 54.4014 69.3 55.1001C70.5 55.7667 71.4167 56.5081 72.05 57.3241C72.6833 58.1401 73 59.0321 73 60.0001V62.0001C73 63.1001 72.6087 64.0421 71.826 64.8261C71.0433 65.6101 70.1013 66.0014 69 66H63.9ZM45 50.0001C42.8 50.0001 40.9167 49.2167 39.35 47.6501C37.7833 46.0834 37 44.2001 37 42.0001C37 39.8001 37.7833 37.9167 39.35 36.3501C40.9167 34.7834 42.8 34.0001 45 34.0001C47.2 34.0001 49.0833 34.7834 50.65 36.3501C52.2167 37.9167 53 39.8001 53 42.0001C53 44.2001 52.2167 46.0834 50.65 47.6501C49.0833 49.2167 47.2 50.0001 45 50.0001ZM65 42.0001C65 44.2001 64.2167 46.0834 62.65 47.6501C61.0833 49.2167 59.2 50.0001 57 50.0001C56.6333 50.0001 56.1667 49.9587 55.6 49.8761C55.0333 49.7934 54.5667 49.7014 54.2 49.6001C55.1 48.5334 55.792 47.3501 56.276 46.0501C56.76 44.7501 57.0013 43.4001 57 42.0001C56.9987 40.6001 56.7573 39.2501 56.276 37.9501C55.7947 36.6501 55.1027 35.4667 54.2 34.4001C54.6667 34.2334 55.1333 34.1247 55.6 34.0741C56.0667 34.0234 56.5333 33.9987 57 34.0001C59.2 34.0001 61.0833 34.7834 62.65 36.3501C64.2167 37.9167 65 39.8001 65 42.0001Z" fill="white"/>
</g>
<defs>
<clipPath id="clip0_635_368">
<rect width="48" height="48" fill="white" transform="translate(27 27)"/>
</clipPath>
</defs>
</svg>
