<svg width="102" height="102" viewBox="0 0 102 102" fill="none" xmlns="http://www.w3.org/2000/svg">
<rect width="102" height="102" rx="24" fill="url(#paint0_linear_626_272)"/>
<g clip-path="url(#clip0_626_272)">
<path d="M51 31.2139C62.046 31.2139 71 40.1679 71 51.2139C71 62.2599 62.046 71.2139 51 71.2139C39.954 71.2139 31 62.2599 31 51.2139C31 40.1679 39.954 31.2139 51 31.2139ZM51 39.2139C50.4696 39.2139 49.9609 39.4246 49.5858 39.7997C49.2107 40.1747 49 40.6834 49 41.2139V51.2139C49.0001 51.7443 49.2109 52.2529 49.586 52.6279L55.586 58.6279C55.9632 58.9922 56.4684 59.1938 56.9928 59.1892C57.5172 59.1847 58.0188 58.9743 58.3896 58.6035C58.7605 58.2327 58.9708 57.7311 58.9753 57.2067C58.9799 56.6823 58.7783 56.1771 58.414 55.7999L53 50.3859V41.2139C53 40.6834 52.7893 40.1747 52.4142 39.7997C52.0391 39.4246 51.5304 39.2139 51 39.2139Z" fill="white"/>
</g>
<defs>
<linearGradient id="paint0_linear_626_272" x1="8.36719" y1="8.36719" x2="97.2188" y2="98.8125" gradientUnits="userSpaceOnUse">
<stop stop-color="#084298"/>
<stop offset="1" stop-color="#0D6EFD"/>
</linearGradient>
<clipPath id="clip0_626_272">
<rect width="48" height="48" fill="white" transform="translate(27 27)"/>
</clipPath>
</defs>
</svg>
