<svg width="48" height="48" viewBox="0 0 48 48" fill="none" xmlns="http://www.w3.org/2000/svg">
<path d="M25.1879 46.5159L25.1639 46.5199L25.0219 46.5899L24.9819 46.5979L24.9539 46.5899L24.8119 46.5179C24.7905 46.5125 24.7745 46.5165 24.7639 46.5299L24.7559 46.5499L24.7219 47.4059L24.7319 47.4459L24.7519 47.4719L24.9599 47.6199L24.9899 47.6279L25.0139 47.6199L25.2219 47.4719L25.2459 47.4399L25.2539 47.4059L25.2199 46.5519C25.2145 46.5305 25.2039 46.5185 25.1879 46.5159ZM25.7159 46.2899L25.6879 46.2939L25.3199 46.4799L25.2999 46.4999L25.2939 46.5219L25.3299 47.3819L25.3399 47.4059L25.3559 47.4219L25.7579 47.6059C25.7832 47.6125 25.8025 47.6072 25.8159 47.5899L25.8239 47.5619L25.7559 46.3339C25.7492 46.3085 25.7359 46.2939 25.7159 46.2899ZM24.2859 46.2939C24.277 46.2885 24.2665 46.2868 24.2564 46.289C24.2464 46.2913 24.2376 46.2973 24.2319 46.3059L24.2199 46.3339L24.1519 47.5619C24.1532 47.5859 24.1645 47.6019 24.1859 47.6099L24.2159 47.6059L24.6179 47.4199L24.6379 47.4039L24.6439 47.3819L24.6799 46.5219L24.6739 46.4979L24.6539 46.4779L24.2859 46.2939Z" fill="white"/>
<path d="M23.9999 4C20.2868 4 16.7259 5.475 14.1004 8.1005C11.4749 10.726 9.99986 14.287 9.99986 18V25.056C10.0002 25.3663 9.92826 25.6723 9.78986 25.95L6.35586 32.816C6.18811 33.1514 6.1089 33.5242 6.12576 33.8989C6.14261 34.2735 6.25497 34.6377 6.45215 34.9567C6.64934 35.2757 6.92481 35.539 7.25239 35.7216C7.57998 35.9042 7.94882 36.0001 8.32386 36H39.6759C40.0509 36.0001 40.4197 35.9042 40.7473 35.7216C41.0749 35.539 41.3504 35.2757 41.5476 34.9567C41.7448 34.6377 41.8571 34.2735 41.874 33.8989C41.8908 33.5242 41.8116 33.1514 41.6439 32.816L38.2119 25.95C38.0728 25.6725 38.0002 25.3664 37.9999 25.056V18C37.9999 14.287 36.5249 10.726 33.8994 8.1005C31.2738 5.475 27.7129 4 23.9999 4ZM23.9999 42C22.7586 42.0007 21.5476 41.6163 20.5339 40.8999C19.5202 40.1835 18.7536 39.1703 18.3399 38H29.6599C29.2461 39.1703 28.4795 40.1835 27.4658 40.8999C26.4521 41.6163 25.2412 42.0007 23.9999 42Z" fill="white"/>
</svg>
