<svg width="102" height="102" viewBox="0 0 102 102" fill="none" xmlns="http://www.w3.org/2000/svg">
<rect width="102" height="102" rx="24" fill="url(#paint0_linear_626_252)"/>
<path d="M47.23 70.622C48.442 71.622 49.706 72.536 51 73.428C52.2968 72.5478 53.5546 71.6116 54.77 70.622C56.796 68.9584 58.7027 67.1547 60.476 65.224C64.564 60.754 69 54.274 69 47C69 44.6362 68.5344 42.2956 67.6298 40.1117C66.7252 37.9278 65.3994 35.9435 63.7279 34.2721C62.0565 32.6006 60.0722 31.2748 57.8883 30.3702C55.7044 29.4656 53.3638 29 51 29C48.6362 29 46.2956 29.4656 44.1117 30.3702C41.9278 31.2748 39.9435 32.6006 38.2721 34.2721C36.6006 35.9435 35.2748 37.9278 34.3702 40.1117C33.4656 42.2956 33 44.6362 33 47C33 54.274 37.436 60.752 41.524 65.224C43.2972 67.1554 45.2039 68.9578 47.23 70.622ZM51 53.5C49.2761 53.5 47.6228 52.8152 46.4038 51.5962C45.1848 50.3772 44.5 48.7239 44.5 47C44.5 45.2761 45.1848 43.6228 46.4038 42.4038C47.6228 41.1848 49.2761 40.5 51 40.5C52.7239 40.5 54.3772 41.1848 55.5962 42.4038C56.8152 43.6228 57.5 45.2761 57.5 47C57.5 48.7239 56.8152 50.3772 55.5962 51.5962C54.3772 52.8152 52.7239 53.5 51 53.5Z" fill="white"/>
<defs>
<linearGradient id="paint0_linear_626_252" x1="8.36719" y1="8.36719" x2="97.2188" y2="98.8125" gradientUnits="userSpaceOnUse">
<stop stop-color="#084298"/>
<stop offset="1" stop-color="#0D6EFD"/>
</linearGradient>
</defs>
</svg>
