<svg width="48" height="48" viewBox="0 0 48 48" fill="none" xmlns="http://www.w3.org/2000/svg">
<g clip-path="url(#clip0_626_266)">
<path d="M24 4.21387C35.046 4.21387 44 13.1679 44 24.2139C44 35.2599 35.046 44.2139 24 44.2139C12.954 44.2139 4 35.2599 4 24.2139C4 13.1679 12.954 4.21387 24 4.21387ZM24 12.2139C23.4696 12.2139 22.9609 12.4246 22.5858 12.7997C22.2107 13.1747 22 13.6834 22 14.2139V24.2139C22.0001 24.7443 22.2109 25.2529 22.586 25.6279L28.586 31.6279C28.9632 31.9922 29.4684 32.1938 29.9928 32.1892C30.5172 32.1847 31.0188 31.9743 31.3896 31.6035C31.7605 31.2327 31.9708 30.7311 31.9753 30.2067C31.9799 29.6823 31.7783 29.1771 31.414 28.7999L26 23.3859V14.2139C26 13.6834 25.7893 13.1747 25.4142 12.7997C25.0391 12.4246 24.5304 12.2139 24 12.2139Z" fill="white"/>
</g>
<defs>
<clipPath id="clip0_626_266">
<rect width="48" height="48" fill="white"/>
</clipPath>
</defs>
</svg>
