<svg width="102" height="102" viewBox="0 0 102 102" fill="none" xmlns="http://www.w3.org/2000/svg">
<rect width="102" height="102" rx="24" fill="url(#paint0_linear_626_282)"/>
<path d="M42.5888 32.5557C44.9396 29.2375 47.5094 27 50.9998 27C54.4903 27 57.0601 29.24 59.4108 32.5557C61.7444 35.8492 64.2182 40.7231 67.3861 46.9606L68.3461 48.8535C70.9677 54.0178 73.0329 58.0843 74.1159 61.3483C75.2187 64.6665 75.4698 67.6302 73.8181 70.2665C72.1689 72.8905 69.3849 73.9858 65.892 74.4978C62.4508 75 57.8379 75 51.9697 75H50.03C44.1618 75 39.5489 75 36.1077 74.4978C32.6148 73.9858 29.8308 72.8905 28.1816 70.264C26.5299 67.6302 26.781 64.6665 27.8862 61.3483C28.9693 58.0868 31.032 54.0178 33.656 48.8535L34.616 46.9631C37.7815 40.7231 40.2504 35.8492 42.5888 32.5557ZM52.846 42.3846C52.846 41.895 52.6515 41.4254 52.3053 41.0792C51.959 40.733 51.4895 40.5385 50.9998 40.5385C50.5102 40.5385 50.0406 40.733 49.6944 41.0792C49.3482 41.4254 49.1537 41.895 49.1537 42.3846V55.9231C49.1537 56.4127 49.3482 56.8823 49.6944 57.2285C50.0406 57.5747 50.5102 57.7692 50.9998 57.7692C51.4895 57.7692 51.959 57.5747 52.3053 57.2285C52.6515 56.8823 52.846 56.4127 52.846 55.9231V42.3846ZM52.846 62.6849C52.846 62.1953 52.6515 61.7257 52.3053 61.3795C51.959 61.0333 51.4895 60.8388 50.9998 60.8388C50.5102 60.8388 50.0406 61.0333 49.6944 61.3795C49.3482 61.7257 49.1537 62.1953 49.1537 62.6849V63.9157C49.1537 64.4053 49.3482 64.8749 49.6944 65.2211C50.0406 65.5673 50.5102 65.7618 50.9998 65.7618C51.4895 65.7618 51.959 65.5673 52.3053 65.2211C52.6515 64.8749 52.846 64.4053 52.846 63.9157V62.6849Z" fill="white"/>
<defs>
<linearGradient id="paint0_linear_626_282" x1="8.36719" y1="8.36719" x2="97.2188" y2="98.8125" gradientUnits="userSpaceOnUse">
<stop stop-color="#084298"/>
<stop offset="1" stop-color="#0D6EFD"/>
</linearGradient>
</defs>
</svg>
