<svg width="102" height="102" viewBox="0 0 102 102" fill="none" xmlns="http://www.w3.org/2000/svg">
<rect width="102" height="102" rx="24" fill="url(#paint0_linear_626_243)"/>
<path fill-rule="evenodd" clip-rule="evenodd" d="M40.3333 37.6667C40.3333 34.8377 41.4571 32.1246 43.4575 30.1242C45.4579 28.1238 48.171 27 51 27C53.829 27 56.5421 28.1238 58.5425 30.1242C60.5429 32.1246 61.6667 34.8377 61.6667 37.6667C61.6667 40.4956 60.5429 43.2088 58.5425 45.2091C56.5421 47.2095 53.829 48.3333 51 48.3333C48.171 48.3333 45.4579 47.2095 43.4575 45.2091C41.4571 43.2088 40.3333 40.4956 40.3333 37.6667ZM40.3333 53.6667C36.7971 53.6667 33.4057 55.0714 30.9052 57.5719C28.4048 60.0724 27 63.4638 27 67C27 69.1217 27.8429 71.1566 29.3431 72.6569C30.8434 74.1571 32.8783 75 35 75H67C69.1217 75 71.1566 74.1571 72.6569 72.6569C74.1571 71.1566 75 69.1217 75 67C75 63.4638 73.5952 60.0724 71.0948 57.5719C68.5943 55.0714 65.2029 53.6667 61.6667 53.6667H40.3333Z" fill="white"/>
<defs>
<linearGradient id="paint0_linear_626_243" x1="8.36719" y1="8.36719" x2="97.2188" y2="98.8125" gradientUnits="userSpaceOnUse">
<stop stop-color="#084298"/>
<stop offset="1" stop-color="#0D6EFD"/>
</linearGradient>
</defs>
</svg>
