<svg width="48" height="49" viewBox="0 0 48 49" fill="none" xmlns="http://www.w3.org/2000/svg">
<path d="M25.1879 47.5159L25.1639 47.5199L25.0219 47.5899L24.9819 47.5979L24.9539 47.5899L24.8119 47.5179C24.7905 47.5125 24.7745 47.5165 24.7639 47.5299L24.7559 47.5499L24.7219 48.4059L24.7319 48.4459L24.7519 48.4719L24.9599 48.6199L24.9899 48.6279L25.0139 48.6199L25.2219 48.4719L25.2459 48.4399L25.2539 48.4059L25.2199 47.5519C25.2145 47.5305 25.2039 47.5185 25.1879 47.5159ZM25.7159 47.2899L25.6879 47.2939L25.3199 47.4799L25.2999 47.4999L25.2939 47.5219L25.3299 48.3819L25.3399 48.4059L25.3559 48.4219L25.7579 48.6059C25.7832 48.6125 25.8025 48.6072 25.8159 48.5899L25.8239 48.5619L25.7559 47.3339C25.7492 47.3085 25.7359 47.2939 25.7159 47.2899ZM24.2859 47.2939C24.277 47.2885 24.2665 47.2868 24.2564 47.289C24.2464 47.2913 24.2376 47.2973 24.2319 47.3059L24.2199 47.3339L24.1519 48.5619C24.1532 48.5859 24.1645 48.6019 24.1859 48.6099L24.2159 48.6059L24.6179 48.4199L24.6379 48.4039L24.6439 48.3819L24.6799 47.5219L24.6739 47.4979L24.6539 47.4779L24.2859 47.2939Z" fill="white"/>
<path d="M20.23 43.622C21.442 44.622 22.706 45.536 24 46.428C25.2968 45.5478 26.5546 44.6116 27.77 43.622C29.796 41.9584 31.7027 40.1547 33.476 38.224C37.564 33.754 42 27.274 42 20C42 17.6362 41.5344 15.2956 40.6298 13.1117C39.7252 10.9278 38.3994 8.94353 36.7279 7.27208C35.0565 5.60062 33.0722 4.27475 30.8883 3.37017C28.7044 2.46558 26.3638 2 24 2C21.6362 2 19.2956 2.46558 17.1117 3.37017C14.9278 4.27475 12.9435 5.60062 11.2721 7.27208C9.60062 8.94353 8.27475 10.9278 7.37017 13.1117C6.46558 15.2956 6 17.6362 6 20C6 27.274 10.436 33.752 14.524 38.224C16.2972 40.1554 18.2039 41.9578 20.23 43.622ZM24 26.5C22.2761 26.5 20.6228 25.8152 19.4038 24.5962C18.1848 23.3772 17.5 21.7239 17.5 20C17.5 18.2761 18.1848 16.6228 19.4038 15.4038C20.6228 14.1848 22.2761 13.5 24 13.5C25.7239 13.5 27.3772 14.1848 28.5962 15.4038C29.8152 16.6228 30.5 18.2761 30.5 20C30.5 21.7239 29.8152 23.3772 28.5962 24.5962C27.3772 25.8152 25.7239 26.5 24 26.5Z" fill="white"/>
</svg>
