<svg width="48" height="48" viewBox="0 0 48 48" fill="none" xmlns="http://www.w3.org/2000/svg">
<g clip-path="url(#clip0_636_393)">
<path d="M15.5888 5.55569C17.9396 2.23754 20.5094 0 23.9998 0C27.4903 0 30.0601 2.24 32.4108 5.55569C34.7444 8.84923 37.2182 13.7231 40.3861 19.9606L41.3461 21.8535C43.9677 27.0178 46.0329 31.0843 47.1159 34.3483C48.2187 37.6665 48.4698 40.6302 46.8181 43.2665C45.1689 45.8905 42.3849 46.9858 38.892 47.4978C35.4508 48 30.8379 48 24.9697 48H23.03C17.1618 48 12.5489 48 9.10767 47.4978C5.61478 46.9858 2.83081 45.8905 1.18159 43.264C-0.470083 40.6302 -0.219008 37.6665 0.886212 34.3483C1.96928 31.0868 4.03203 27.0178 6.656 21.8535L7.616 19.9631C10.7815 13.7231 13.2504 8.84923 15.5888 5.55569ZM25.846 15.3846C25.846 14.895 25.6515 14.4254 25.3053 14.0792C24.959 13.733 24.4895 13.5385 23.9998 13.5385C23.5102 13.5385 23.0406 13.733 22.6944 14.0792C22.3482 14.4254 22.1537 14.895 22.1537 15.3846V28.9231C22.1537 29.4127 22.3482 29.8823 22.6944 30.2285C23.0406 30.5747 23.5102 30.7692 23.9998 30.7692C24.4895 30.7692 24.959 30.5747 25.3053 30.2285C25.6515 29.8823 25.846 29.4127 25.846 28.9231V15.3846ZM25.846 35.6849C25.846 35.1953 25.6515 34.7257 25.3053 34.3795C24.959 34.0333 24.4895 33.8388 23.9998 33.8388C23.5102 33.8388 23.0406 34.0333 22.6944 34.3795C22.3482 34.7257 22.1537 35.1953 22.1537 35.6849V36.9157C22.1537 37.4053 22.3482 37.8749 22.6944 38.2211C23.0406 38.5673 23.5102 38.7618 23.9998 38.7618C24.4895 38.7618 24.959 38.5673 25.3053 38.2211C25.6515 37.8749 25.846 37.4053 25.846 36.9157V35.6849Z" fill="white"/>
</g>
<defs>
<clipPath id="clip0_636_393">
<rect width="48" height="48" fill="white"/>
</clipPath>
</defs>
</svg>
