<svg width="44" height="32" viewBox="0 0 44 32" fill="none" xmlns="http://www.w3.org/2000/svg">
<path d="M0 26.4001C0 25.2667 0.292 24.2254 0.876 23.2761C1.46 22.3267 2.23467 21.6014 3.2 21.1001C5.26667 20.0667 7.36667 19.2921 9.5 18.7761C11.6333 18.2601 13.8 18.0014 16 18.0001C18.2 17.9987 20.3667 18.2574 22.5 18.7761C24.6333 19.2947 26.7333 20.0694 28.8 21.1001C29.7667 21.6001 30.542 22.3254 31.126 23.2761C31.71 24.2267 32.0013 25.2681 32 26.4001V28.0001C32 29.1001 31.6087 30.0421 30.826 30.8261C30.0433 31.6101 29.1013 32.0014 28 32H4C2.9 32 1.95867 31.6087 1.176 30.8261C0.393333 30.0434 0.00133333 29.1014 0 28.0001V26.4001ZM34.9 32C35.2667 31.4 35.542 30.7587 35.726 30.0761C35.91 29.3934 36.0013 28.7014 36 28.0001V26.0001C36 24.5334 35.592 23.1247 34.776 21.7741C33.96 20.4234 32.8013 19.2654 31.3 18.3001C33 18.5001 34.6 18.8421 36.1 19.3261C37.6 19.8101 39 20.4014 40.3 21.1001C41.5 21.7667 42.4167 22.5081 43.05 23.3241C43.6833 24.1401 44 25.0321 44 26.0001V28.0001C44 29.1001 43.6087 30.0421 42.826 30.8261C42.0433 31.6101 41.1013 32.0014 40 32H34.9ZM16 16.0001C13.8 16.0001 11.9167 15.2167 10.35 13.6501C8.78333 12.0834 8 10.2001 8 8.00005C8 5.80005 8.78333 3.91672 10.35 2.35005C11.9167 0.783385 13.8 5.12814e-05 16 5.12814e-05C18.2 5.12814e-05 20.0833 0.783385 21.65 2.35005C23.2167 3.91672 24 5.80005 24 8.00005C24 10.2001 23.2167 12.0834 21.65 13.6501C20.0833 15.2167 18.2 16.0001 16 16.0001ZM36 8.00005C36 10.2001 35.2167 12.0834 33.65 13.6501C32.0833 15.2167 30.2 16.0001 28 16.0001C27.6333 16.0001 27.1667 15.9587 26.6 15.8761C26.0333 15.7934 25.5667 15.7014 25.2 15.6001C26.1 14.5334 26.792 13.3501 27.276 12.0501C27.76 10.7501 28.0013 9.40005 28 8.00005C27.9987 6.60005 27.7573 5.25005 27.276 3.95005C26.7947 2.65005 26.1027 1.46672 25.2 0.400051C25.6667 0.233384 26.1333 0.124718 26.6 0.0740516C27.0667 0.023385 27.5333 -0.00128205 28 5.12814e-05C30.2 5.12814e-05 32.0833 0.783385 33.65 2.35005C35.2167 3.91672 36 5.80005 36 8.00005Z" fill="white"/>
</svg>
